<svg width="4551" height="255" viewBox="0 0 4551 255" fill="none" xmlns="http://www.w3.org/2000/svg">
<path d="M265.024 244.36L232.88 117.096H230.256L198.44 244.36H68.88L0 10.168H111.848L142.68 139.4H145.304L176.464 10.168H286.344L317.832 139.4H320.456L351.616 10.168H463.136L392.288 244.36H265.024Z" fill="white"/>
<path d="M468.658 244.36V10.168H576.242V244.36H468.658Z" fill="white"/>
<path d="M920.184 91.184H809.648V244.36H702.064V91.184H591.856V10.168H920.184V91.184Z" fill="white"/>
<path d="M1281.39 244.36H1157.07L1119.03 184.664H1043.26V244.36H935.674V10.168H1175.11C1211.19 10.168 1236.89 16.9467 1252.19 30.504C1267.72 43.8427 1275.48 64.288 1275.48 91.84C1275.48 111.957 1271.11 127.264 1262.36 137.76C1253.62 148.256 1241.26 155.472 1225.3 159.408V162.688L1281.39 244.36ZM1132.47 122.672C1147.78 122.672 1155.43 116.221 1155.43 103.32C1155.43 90.4187 1147.78 83.968 1132.47 83.968H1043.26V122.672H1132.47Z" fill="white"/>
<path d="M1497.23 178.432V244.36H1389.32V178.432L1260.09 10.168H1389.65L1443.44 89.544L1496.57 10.168H1626.13L1497.23 178.432Z" fill="white"/>
<path d="M1968.92 10.168V244.36H1842.64L1734.73 122.344H1732.1V244.36H1630.75V10.168H1758.34L1864.94 130.544H1867.57V10.168H1968.92Z" fill="white"/>
<path d="M2233.85 217.136H2105.28L2092.16 244.36H1975.06L2096.75 10.168H2243.37L2364.07 244.36H2247.3L2233.85 217.136ZM2203.68 155.8L2170.55 88.888H2168.58L2135.78 155.8H2203.68Z" fill="white"/>
<path d="M3346.16 173.184H3486.88V244.36H3171.67V175.808L3312.38 81.344H3179.21V10.168H3486.88V78.72L3346.16 173.184Z" fill="white"/>
<path d="M3612.16 97.088H3791.25V150.88H3612.16V181.384H3803.06V244.36H3504.58V10.168H3800.44V69.536H3612.16V97.088Z" fill="white"/>
<path d="M4167.08 244.36H4042.77L4004.72 184.664H3928.95V244.36H3821.37V10.168H4060.81C4096.89 10.168 4122.58 16.9467 4137.89 30.504C4153.41 43.8427 4161.18 64.288 4161.18 91.84C4161.18 111.957 4156.8 127.264 4148.06 137.76C4139.31 148.256 4126.96 155.472 4110.99 159.408V162.688L4167.08 244.36ZM4018.17 122.672C4033.48 122.672 4041.13 116.221 4041.13 103.32C4041.13 90.4187 4033.48 83.968 4018.17 83.968H3928.95V122.672H4018.17Z" fill="white"/>
<path d="M4419.99 217.136H4291.41L4278.29 244.36H4161.19L4282.88 10.168H4429.5L4550.2 244.36H4433.44L4419.99 217.136ZM4389.81 155.8L4356.68 88.888H4354.71L4321.92 155.8H4389.81Z" fill="white"/>
<path d="M2364.56 151.536C2364.56 130.522 2368.58 110.173 2376.63 90.5146L2376.64 90.4834C2378.47 86.1402 2380.47 81.9563 2382.64 77.9336C2379.51 83.1231 2376.71 88.64 2374.25 94.4902L2373.56 96.2178C2366.49 114.089 2362.96 132.514 2362.96 151.536C2362.96 169.073 2366.86 183.995 2374.68 196.463C2367.94 183.529 2364.56 168.536 2364.56 151.536ZM142.68 139.4H145.304L176.464 10.168H286.344L317.832 139.4H320.456L351.616 10.168H463.136L392.288 244.36H265.024L232.88 117.096H230.256L198.44 244.36H68.88L0 10.168H111.848L142.68 139.4ZM576.242 10.168V244.36H468.658V10.168H576.242ZM802.647 84.1836H913.184V17.168H598.855V84.1836H709.063V237.36H802.647V84.1836ZM1268.48 91.8398C1268.48 65.5833 1261.12 47.4033 1247.63 35.8135L1247.59 35.7793L1247.55 35.7441C1234.2 23.9158 1210.67 17.168 1175.11 17.168H942.674V237.36H1036.26V177.664H1122.87L1160.91 237.36H1268.09L1218.3 164.86V153.925L1223.62 152.611C1238.44 148.958 1249.37 142.41 1256.98 133.278C1264.29 124.516 1268.48 111.07 1268.48 91.8398ZM1490.23 176.059L1611.95 17.168H1500.31L1443.47 102.074L1385.93 17.168H1274.29L1396.32 176.054V237.36H1490.23V176.059ZM1725.1 115.344H1737.88L1845.79 237.36H1961.92V17.168H1874.57V137.544H1861.79L1755.19 17.168H1637.75V237.36H1725.1V115.344ZM2364.07 244.36H2247.3L2233.85 217.136H2105.28L2092.16 244.36H1975.06L2096.75 10.168H2243.37L2364.07 244.36ZM3148.79 97.0879C3148.79 69.237 3139 49.7936 3120.12 37.3311L3120.09 37.3174L3120.07 37.3027C3100.44 24.1433 3072.68 17.168 3036.07 17.168H2814.87L2772.31 237.36H2996.05C3026.58 237.36 3051.61 233.59 3071.37 226.312C3091.2 219.006 3107.01 208.464 3119.04 194.798C3138.53 172.671 3148.79 140.449 3148.79 97.0879ZM3486.88 10.168V78.72L3346.16 173.184H3486.88V244.36H3171.67V175.808L3312.38 81.344H3179.21V10.168H3486.88ZM3605.16 62.5361H3793.44V17.168H3511.58V237.36H3796.06V188.384H3605.16V143.88H3784.25V104.088H3605.16V62.5361ZM4154.18 91.8398C4154.18 65.5835 4146.82 47.4033 4133.33 35.8135L4133.29 35.7793L4133.25 35.7441C4119.89 23.9158 4096.36 17.168 4060.81 17.168H3828.37V237.36H3921.95V177.664H4008.56L4046.61 237.36H4153.78L4103.99 164.86V153.925L4109.32 152.611C4124.13 148.958 4135.07 142.41 4142.68 133.278C4149.98 124.516 4154.18 111.07 4154.18 91.8398ZM4172.72 237.36H4273.89L4287.01 210.136H4424.34L4437.79 237.36H4538.72L4425.23 17.168H4287.13L4172.72 237.36ZM3186.21 74.3438H3335.37L3178.67 179.539V237.36H3479.88V180.184H3323.18L3479.88 74.9883V17.168H3186.21V74.3438ZM2763.78 237.36H2765.18L2807.74 17.168H2806.34L2763.78 237.36ZM1986.59 237.36H2087.76L2100.88 210.136H2238.2L2251.65 237.36H2352.59L2239.1 17.168H2101L1986.59 237.36ZM475.658 237.36H569.242V17.168H475.658V237.36ZM74.1182 237.36H192.975L224.791 110.096H238.332L270.476 237.36H387.092L453.705 17.168H357.129L325.969 146.4H312.333L280.845 17.168H181.977L150.816 146.4H137.153L106.321 17.168H9.35547L74.1182 237.36ZM2622.96 118.736C2622.96 108.992 2618.85 101.299 2610.64 95.6592L2609.84 95.12C2601.09 89.4347 2587.75 86.592 2569.82 86.592C2546.2 86.592 2528.16 92.2773 2515.7 103.648L2515.25 104.061C2510.66 108.344 2507.09 113.345 2504.55 119.064L2504.07 120.129C2501.77 125.446 2500.61 130.667 2500.61 135.792L2500.62 136.729C2500.89 146.34 2505.26 153.9 2513.73 159.408C2522.48 165.093 2535.82 167.936 2553.75 167.936C2577.36 167.936 2595.4 162.251 2607.87 150.88C2612.68 146.507 2616.4 141.477 2619.02 135.792C2621.56 130.072 2622.87 124.558 2622.95 119.249L2622.96 118.736ZM3010.81 117.752C3010.81 109.914 3007.94 104.128 3002.19 100.395L3001.63 100.04C2995.72 96.104 2987.63 94.136 2977.35 94.136H2915.36L2902.57 160.392H2964.56C2979.65 160.392 2991.35 156.019 2999.66 147.272C3002.94 143.787 3005.55 139.629 3007.48 134.799L3007.86 133.824C3009.83 128.576 3010.81 123.219 3010.81 117.752ZM2174.9 81.8877L2214.96 162.8H2124.56L2164.22 81.8877H2174.9ZM4361.03 81.8877L4401.09 162.8H4310.69L4350.35 81.8877H4361.03ZM2135.78 155.8H2203.68L2170.55 88.888H2168.58L2135.78 155.8ZM4321.92 155.8H4389.81L4356.68 88.888H4354.71L4321.92 155.8ZM1155.43 103.32C1155.43 90.4187 1147.78 83.968 1132.47 83.968L1132.47 76.9678C1140.94 76.9678 1148.6 78.7277 1154.21 83.4541C1160.04 88.3736 1162.43 95.4471 1162.43 103.32C1162.43 111.193 1160.04 118.267 1154.21 123.187C1148.6 127.913 1140.94 129.672 1132.47 129.672H1036.26V76.9678H1132.47L1132.47 83.968H1043.26V122.672H1132.47C1147.54 122.672 1155.19 116.421 1155.43 103.92L1155.43 103.32ZM4041.13 103.32C4041.13 90.4187 4033.48 83.968 4018.17 83.968L4018.17 76.9678C4026.64 76.9678 4034.29 78.7277 4039.9 83.4541C4045.74 88.3736 4048.13 95.4471 4048.13 103.32C4048.13 111.193 4045.74 118.267 4039.9 123.187C4034.29 127.913 4026.64 129.672 4018.17 129.672H3921.95V76.9678H4018.17L4018.17 83.968H3928.95V122.672H4018.17C4033.24 122.672 4040.89 116.421 4041.12 103.92L4041.13 103.32ZM1497.23 244.36H1389.32V178.432L1260.09 10.168H1389.65L1443.44 89.544L1496.57 10.168H1626.13L1497.23 178.432V244.36ZM2371.56 151.536C2371.56 185.517 2385.78 210.346 2414.36 226.539C2421.15 230.304 2428.86 233.642 2437.51 236.549C2464.21 243.777 2498.8 247.528 2541.61 247.528C2584.57 247.528 2620.15 243.944 2648.49 236.91L2648.51 236.907C2677.07 229.874 2699.63 219.22 2716.54 205.199C2730.71 193.289 2741.53 178.281 2748.99 160.037C2756.53 141.391 2760.28 122.39 2760.28 102.992C2760.28 86.3926 2756.78 72.358 2750.05 60.6377C2743.33 48.9292 2733.17 39.1454 2719.25 31.3662L2719.24 31.3574L2719.22 31.3477C2691.1 15.4282 2645.7 7.00002 2581.96 7C2539 7 2503.31 10.5843 2474.73 17.6211C2472.47 18.178 2470.25 18.7601 2468.06 19.3623C2447.4 26.2042 2430.36 35.3161 2416.88 46.6328C2402.26 58.9298 2390.99 74.4175 2383.1 93.1641L2383.11 93.165C2375.4 111.992 2371.56 131.441 2371.56 151.536ZM1732.1 244.36H1630.75V10.168H1758.34L1864.94 130.544H1867.57V10.168H1968.92V244.36H1842.64L1734.73 122.344H1732.1V244.36ZM2629.96 118.736C2629.96 125.344 2628.37 131.997 2625.42 138.635L2625.4 138.681L2625.38 138.726C2625.18 139.157 2624.97 139.585 2624.76 140.01C2625.96 138.206 2627.01 136.32 2627.92 134.35C2630.38 128.82 2631.55 123.626 2631.55 118.736C2631.55 113.218 2630.09 108.494 2627.09 104.489C2628.98 108.78 2629.96 113.544 2629.96 118.736ZM2638.55 118.736C2638.55 124.773 2637.1 130.943 2634.31 137.214L2634.29 137.259C2631.46 143.384 2627.46 148.789 2622.32 153.465L2622.32 153.466C2614.17 160.9 2603.9 165.961 2591.62 168.771C2580.71 172.949 2568.01 174.936 2553.75 174.936C2535.32 174.936 2520.35 172.06 2509.92 165.277C2499.27 158.358 2493.61 148.324 2493.61 135.792C2493.61 129.2 2495.19 122.652 2498.16 116.204C2501.18 109.414 2505.47 103.487 2510.99 98.4688C2525.18 85.5288 2545.16 79.5918 2569.82 79.5918C2584.13 79.5918 2596.35 81.327 2605.98 85.2773C2613.04 86.771 2619.02 89.0519 2623.84 92.1855C2633.53 98.4876 2638.55 107.441 2638.55 118.736ZM3017.81 117.752C3017.81 124.079 3016.67 130.268 3014.41 136.282C3013.83 137.833 3013.19 139.335 3012.48 140.787C3014.14 138.352 3015.54 135.626 3016.68 132.595C3018.5 127.73 3019.4 122.788 3019.4 117.752C3019.4 112.843 3018.16 109.089 3015.74 106.251C3017.13 109.718 3017.81 113.584 3017.81 117.752ZM3026.4 117.752C3026.4 123.649 3025.34 129.422 3023.23 135.053C3021.11 140.692 3018.15 145.584 3014.3 149.671L3014.3 149.677L3014.29 149.683C3007.75 156.565 2999.37 160.878 2989.34 162.771C2982.05 165.898 2973.74 167.392 2964.56 167.392H2894.09L2909.58 87.1357H2977.35C2986.15 87.1357 2994.04 88.4682 3000.65 91.5117C3006.41 92.4936 3011.42 94.3203 3015.59 97.083C3022.87 101.53 3026.4 108.651 3026.4 117.752ZM2767.26 104.897C2767.03 124.571 2763.09 143.835 2755.47 162.688L2754.72 164.482C2746.87 182.925 2735.64 198.29 2721.03 210.576L2720.18 211.271C2702.36 225.79 2679.02 236.601 2650.18 243.704C2621.1 250.92 2584.91 254.528 2541.61 254.528C2478.54 254.528 2432 246.476 2401.99 230.373L2400.57 229.6C2371.3 213.026 2356.43 187.552 2355.97 153.18L2355.96 151.536C2355.96 130.981 2359.9 111.083 2367.77 91.84C2375.86 72.5973 2387.45 56.6347 2402.54 43.952C2420.25 29.0827 2443.76 18.04 2473.06 10.824C2502.36 3.60801 2538.66 0 2581.96 0C2646.03 0 2692.93 8.41867 2722.67 25.256C2752.41 41.8747 2767.28 67.7867 2767.28 102.992L2767.26 104.897ZM3155.78 99.1611C3155.46 142.541 3144.96 175.962 3124.3 199.424C3111.4 214.075 3094.56 225.227 3073.79 232.88L3072.81 233.236C3052.2 240.652 3026.62 244.36 2996.05 244.36H2755.3L2800.56 10.168H3036.07C3073.46 10.168 3102.76 17.2747 3123.97 31.488C3145.18 45.4827 3155.79 67.3493 3155.79 97.088L3155.78 99.1611ZM1275.48 91.84C1275.48 111.957 1271.11 127.264 1262.36 137.76L1261.53 138.734C1252.84 148.704 1240.76 155.595 1225.3 159.408V162.688L1281.39 244.36H1157.07L1119.03 184.664H1043.26V244.36H935.674V10.168H1175.11L1176.8 10.1729C1211.99 10.3814 1237.13 17.1586 1252.19 30.504C1267.72 43.8427 1275.48 64.288 1275.48 91.84ZM4161.16 93.7119C4160.9 112.909 4156.53 127.592 4148.06 137.76L4147.23 138.734C4138.53 148.704 4126.46 155.595 4110.99 159.408V162.688L4163.73 239.48L4282.88 10.168H4429.5L4550.2 244.36H4433.44L4419.99 217.136H4291.41L4278.29 244.36H4042.77L4004.72 184.664H3928.95V244.36H3821.37V10.168H4060.81L4062.49 10.1729C4097.69 10.3814 4122.82 17.1586 4137.89 30.504C4153.41 43.8427 4161.18 64.288 4161.18 91.84L4161.16 93.7119ZM809.648 244.36H702.064V91.184H591.856V10.168H920.184V91.184H809.648V244.36ZM3612.16 97.088H3791.25V150.88H3612.16V181.384H3803.06V244.36H3504.58V10.168H3800.44V69.536H3612.16V97.088Z" fill="white"/>
</svg>
