<svg width="69" height="252" viewBox="0 0 69 252" fill="none" xmlns="http://www.w3.org/2000/svg">
<g clip-path="url(#clip0_13_105)">
<path d="M63.25 6.63155V4.73682H15.3334V6.63155H63.25Z" fill="#E0E0E0"/>
<path d="M63.25 8.52635V7.57898H15.3334V8.52635H63.25Z" fill="#E0E0E0"/>
<path d="M63.25 11.3684V10.421H15.3334V11.3684H63.25Z" fill="#E0E0E0"/>
<path d="M63.25 17.9999V15.1578H15.3334V17.9999H63.25Z" fill="#E0E0E0"/>
<path d="M63.25 19.8948V18.9474H15.3334V19.8948H63.25Z" fill="#E0E0E0"/>
<path d="M63.25 24.6316V22.7368H15.3334V24.6316H63.25Z" fill="#E0E0E0"/>
<path d="M63.25 28.4211V25.579H15.3334V28.4211H63.25Z" fill="#E0E0E0"/>
<path d="M63.25 30.3158V29.3684H15.3334V30.3158H63.25Z" fill="#E0E0E0"/>
<path d="M63.25 35.0526V33.1578H15.3334V35.0526H63.25Z" fill="#E0E0E0"/>
<path d="M63.25 38.8421V36H15.3334V38.8421H63.25Z" fill="#E0E0E0"/>
<path d="M63.25 40.7368V39.7894H15.3334V40.7368H63.25Z" fill="#E0E0E0"/>
<path d="M63.25 45.4737V43.579H15.3334V45.4737H63.25Z" fill="#E0E0E0"/>
<path d="M63.25 47.3684V46.421H15.3334V47.3684H63.25Z" fill="#E0E0E0"/>
<path d="M63.25 51.1579V49.2632H15.3334V51.1579H63.25Z" fill="#E0E0E0"/>
<path d="M63.25 55.8947V53.0526H15.3334V55.8947H63.25Z" fill="#E0E0E0"/>
<path d="M63.25 59.6841V56.842H15.3334V59.6841H63.25Z" fill="#E0E0E0"/>
<path d="M63.25 61.579V60.6316H15.3334V61.579H63.25Z" fill="#E0E0E0"/>
<path d="M63.25 66.3158V64.421H15.3334V66.3158H63.25Z" fill="#E0E0E0"/>
<path d="M63.25 69.1579V67.2632H15.3334V69.1579H63.25Z" fill="#E0E0E0"/>
<path d="M63.25 72.9474V72H15.3334V72.9474H63.25Z" fill="#E0E0E0"/>
<path d="M63.25 76.7368V75.7894H15.3334V76.7368H63.25Z" fill="#E0E0E0"/>
<path d="M63.25 79.5789V77.6842H15.3334V79.5789H63.25Z" fill="#E0E0E0"/>
<path d="M63.25 83.3684V80.5262H15.3334V83.3684H63.25Z" fill="#E0E0E0"/>
<path d="M63.25 87.1578V86.2104H15.3334V87.1578H63.25Z" fill="#E0E0E0"/>
<path d="M63.25 90V88.1052H15.3334V90H63.25Z" fill="#E0E0E0"/>
<path d="M63.25 93.7894V92.842H15.3334V93.7894H63.25Z" fill="#E0E0E0"/>
<path d="M63.25 97.5789V94.7368H15.3334V97.5789H63.25Z" fill="#E0E0E0"/>
<path d="M63.25 101.368V98.5262H15.3334V101.368H63.25Z" fill="#E0E0E0"/>
<path d="M63.25 104.211V102.316H15.3334V104.211H63.25Z" fill="#E0E0E0"/>
<path d="M63.25 106.105V105.158H15.3334V106.105H63.25Z" fill="#E0E0E0"/>
<path d="M63.25 109.895V108.947H15.3334V109.895H63.25Z" fill="#E0E0E0"/>
<path d="M63.25 113.684V110.842H15.3334V113.684H63.25Z" fill="#E0E0E0"/>
<path d="M63.25 118.421V116.526H15.3334V118.421H63.25Z" fill="#E0E0E0"/>
<path d="M63.25 120.316V119.368H15.3334V120.316H63.25Z" fill="#E0E0E0"/>
<path d="M63.25 122.211V121.263H15.3334V122.211H63.25Z" fill="#E0E0E0"/>
<path d="M63.25 126.947V125.053H15.3334V126.947H63.25Z" fill="#E0E0E0"/>
<path d="M63.25 130.737V129.789H15.3334V130.737H63.25Z" fill="#E0E0E0"/>
<path d="M63.25 136.421V133.579H15.3334V136.421H63.25Z" fill="#E0E0E0"/>
<path d="M63.25 139.263V137.368H15.3334V139.263H63.25Z" fill="#E0E0E0"/>
<path d="M63.25 141.158V140.21H15.3334V141.158H63.25Z" fill="#E0E0E0"/>
<path d="M63.25 144V142.105H15.3334V144H63.25Z" fill="#E0E0E0"/>
<path d="M63.25 147.789V146.842H15.3334V147.789H63.25Z" fill="#E0E0E0"/>
<path d="M63.25 153.474V150.632H15.3334V153.474H63.25Z" fill="#E0E0E0"/>
<path d="M63.25 156.316V154.421H15.3334V156.316H63.25Z" fill="#E0E0E0"/>
<path d="M63.25 160.105V159.158H15.3334V160.105H63.25Z" fill="#E0E0E0"/>
<path d="M63.25 162V161.053H15.3334V162H63.25Z" fill="#E0E0E0"/>
<path d="M63.25 166.737V164.842H15.3334V166.737H63.25Z" fill="#E0E0E0"/>
<path d="M63.25 168.632V167.684H15.3334V168.632H63.25Z" fill="#E0E0E0"/>
<path d="M63.25 173.368V171.474H15.3334V173.368H63.25Z" fill="#E0E0E0"/>
<path d="M63.25 177.158V176.21H15.3334V177.158H63.25Z" fill="#E0E0E0"/>
<path d="M63.25 180.947V178.105H15.3334V180.947H63.25Z" fill="#E0E0E0"/>
<path d="M63.25 182.842V181.895H15.3334V182.842H63.25Z" fill="#E0E0E0"/>
<path d="M63.25 184.737V183.789H15.3334V184.737H63.25Z" fill="#E0E0E0"/>
<path d="M63.25 189.474V187.579H15.3334V189.474H63.25Z" fill="#E0E0E0"/>
<path d="M63.25 193.263V192.316H15.3334V193.263H63.25Z" fill="#E0E0E0"/>
<path d="M63.25 197.053V195.158H15.3334V197.053H63.25Z" fill="#E0E0E0"/>
<path d="M63.25 201.789V198.947H15.3334V201.789H63.25Z" fill="#E0E0E0"/>
<path d="M63.25 205.579V202.737H15.3334V205.579H63.25Z" fill="#E0E0E0"/>
<path d="M63.25 209.368V206.526H15.3334V209.368H63.25Z" fill="#E0E0E0"/>
<path d="M63.25 212.211V210.316H15.3334V212.211H63.25Z" fill="#E0E0E0"/>
<path d="M63.25 214.105V213.158H15.3334V214.105H63.25Z" fill="#E0E0E0"/>
<path d="M63.25 218.842V216.947H15.3334V218.842H63.25Z" fill="#E0E0E0"/>
<path d="M63.25 222.632V219.789H15.3334V222.632H63.25Z" fill="#E0E0E0"/>
<path d="M63.25 226.421V223.579H15.3334V226.421H63.25Z" fill="#E0E0E0"/>
<path d="M63.25 229.263V227.368H15.3334V229.263H63.25Z" fill="#E0E0E0"/>
<path d="M63.25 231.158V230.21H15.3334V231.158H63.25Z" fill="#E0E0E0"/>
<path d="M63.25 235.895V234H15.3334V235.895H63.25Z" fill="#E0E0E0"/>
<path d="M63.25 241.579V238.737H15.3334V241.579H63.25Z" fill="#E0E0E0"/>
<path d="M63.25 243.474V242.526H15.3334V243.474H63.25Z" fill="#E0E0E0"/>
<path d="M63.25 246.316V244.421H15.3334V246.316H63.25Z" fill="#E0E0E0"/>
</g>
<defs>
<clipPath id="clip0_13_105">
<rect width="251.053" height="68.0417" fill="white" transform="matrix(0 1 -1 0 68.0417 0)"/>
</clipPath>
</defs>
</svg>
