<svg width="294" height="60" viewBox="0 0 294 60" fill="none" xmlns="http://www.w3.org/2000/svg">
<path d="M24 0L25.1298 8.87643C26.4727 19.4271 34.7238 27.8522 45.4059 29.5803L48 30L45.4059 30.4197C34.7238 32.1478 26.4727 40.5729 25.1298 51.1236L24 60L22.8702 51.1236C21.5273 40.5729 13.2762 32.1478 2.59411 30.4197L0 30L2.59411 29.5803C13.2762 27.8522 21.5273 19.4271 22.8702 8.87644L24 0Z" fill="white"/>
<path d="M146 0L146.524 13.8733C146.845 22.361 153.789 29.1679 162.442 29.4781L177 30L162.442 30.5219C153.789 30.8321 146.845 37.639 146.524 46.1267L146 60L145.476 46.1267C145.155 37.639 138.211 30.8321 129.558 30.5219L115 30L129.558 29.4781C138.211 29.1679 145.155 22.361 145.476 13.8733L146 0Z" fill="white"/>
<path d="M161.293 4.01921L154.675 16.2909C150.626 23.7988 153.169 33.0989 160.506 37.6115L172.847 45.2027L159.973 38.5154C152.321 34.5402 142.838 37.0299 138.233 44.2232L130.707 55.9807L137.325 43.709C141.374 36.2012 138.831 26.901 131.494 22.3885L119.153 14.7973L132.027 21.4845C139.679 25.4598 149.162 22.97 153.767 15.7768L161.293 4.01921Z" fill="white"/>
<path d="M172.489 15L160.501 22.3819C153.167 26.8982 150.629 36.1996 154.682 43.7054L161.5 56.3319L153.76 44.2273C149.16 37.0317 139.678 34.5372 132.023 38.5086L119.511 45L131.499 37.618C138.833 33.1018 141.371 23.8004 137.318 16.2946L130.5 3.66815L138.24 15.7727C142.84 22.9682 152.322 25.4628 159.977 21.4914L172.489 15Z" fill="white"/>
<path d="M264 0L268.243 25.7574L294 30L268.243 34.2426L264 60L259.757 34.2426L234 30L259.757 25.7574L264 0Z" fill="white"/>
</svg>
