<svg width="1873" height="105" viewBox="0 0 1873 105" fill="none" xmlns="http://www.w3.org/2000/svg">
<mask id="path-1-inside-1_13_106" fill="white">
<path d="M109.092 100.805L95.8604 48.3054H94.7803L81.6839 100.805H28.3531L0 4.19459H46.04L58.7314 57.5064H59.8115L72.6379 4.19459H117.868L130.829 57.5064H131.909L144.736 4.19459H190.641L161.478 100.805H109.092Z"/>
<path d="M192.914 100.805V4.19459H237.199V100.805H192.914Z"/>
<path d="M378.775 37.616H333.275V100.805H288.99V37.616H243.625V4.19459H378.775V37.616Z"/>
<path d="M527.457 100.805H476.286L460.625 76.1791H429.436V100.805H385.151V4.19459H483.712C498.564 4.19459 509.14 6.99098 515.441 12.5838C521.831 18.0863 525.027 26.5206 525.027 37.8866C525.027 46.1856 523.226 52.5 519.626 56.8299C516.026 61.1598 510.94 64.1366 504.369 65.7603V67.1134L527.457 100.805ZM466.16 50.6057C472.461 50.6057 475.611 47.9446 475.611 42.6224C475.611 37.3003 472.461 34.6392 466.16 34.6392H429.436V50.6057H466.16Z"/>
<path d="M616.305 73.6083V100.805H571.885V73.6083L518.689 4.19459H572.02L594.162 36.9394L616.035 4.19459H669.366L616.305 73.6083Z"/>
<path d="M810.466 4.19459V100.805H758.486L714.066 50.4704H712.986V100.805H671.266V4.19459H723.787L767.667 53.8531H768.747V4.19459H810.466Z"/>
<path d="M919.521 89.5747H866.596L861.195 100.805H812.995L863.085 4.19459H923.437L973.122 100.805H925.057L919.521 89.5747ZM907.1 64.2719L893.464 36.6688H892.653L879.152 64.2719H907.1Z"/>
<path d="M1377.38 71.4433H1435.3V100.805H1305.55V72.5258L1363.47 33.5567H1308.66V4.19459H1435.3V32.4742L1377.38 71.4433Z"/>
<path d="M1486.88 40.0516H1560.59V62.2423H1486.88V74.826H1565.45V100.805H1442.59V4.19459H1564.37V28.6856H1486.88V40.0516Z"/>
<path d="M1715.3 100.805H1664.12L1648.46 76.1791H1617.27V100.805H1572.99V4.19459H1671.55C1686.4 4.19459 1696.98 6.99098 1703.28 12.5838C1709.67 18.0863 1712.87 26.5206 1712.87 37.8866C1712.87 46.1856 1711.07 52.5 1707.46 56.8299C1703.86 61.1598 1698.78 64.1366 1692.21 65.7603V67.1134L1715.3 100.805ZM1654 50.6057C1660.3 50.6057 1663.45 47.9446 1663.45 42.6224C1663.45 37.3003 1660.3 34.6392 1654 34.6392H1617.27V50.6057H1654Z"/>
<path d="M1819.4 89.5747H1766.47L1761.07 100.805H1712.87L1762.96 4.19459H1823.31L1873 100.805H1824.93L1819.4 89.5747ZM1806.98 64.2719L1793.34 36.6688H1792.53L1779.03 64.2719H1806.98Z"/>
<path d="M1090.89 100.535C1078.92 103.512 1064.03 105 1046.2 105C1019.83 105 1000.48 101.572 988.147 94.7165C975.906 87.7706 969.785 77.0361 969.785 62.5129C969.785 54.0335 971.405 45.8247 974.646 37.8866C977.976 29.9485 982.747 23.3634 988.957 18.1315C996.248 11.9974 1005.92 7.44202 1017.99 4.46521C1030.05 1.4884 1044.99 0 1062.81 0C1089.18 0 1108.49 3.47294 1120.73 10.4188C1132.97 17.2745 1139.09 27.9639 1139.09 42.4871C1139.09 50.8763 1137.47 59.0851 1134.23 67.1134C1130.99 75.0516 1126.27 81.6366 1120.06 86.8686C1112.68 93.0026 1102.95 97.558 1090.89 100.535ZM1074.29 39.2397C1070.69 36.8943 1065.2 35.7217 1057.81 35.7217C1048.09 35.7217 1040.67 38.067 1035.54 42.7577C1033.56 44.5619 1032.03 46.6817 1030.95 49.1173C1029.87 51.4626 1029.33 53.7629 1029.33 56.018C1029.33 60.1675 1031.13 63.415 1034.73 65.7603C1038.33 68.1057 1043.82 69.2784 1051.2 69.2784C1060.92 69.2784 1068.35 66.933 1073.48 62.2423C1075.46 60.4381 1076.99 58.3634 1078.07 56.018C1079.15 53.5825 1079.69 51.2371 1079.69 48.982C1079.69 44.8325 1077.89 41.5851 1074.29 39.2397ZM1249.74 4.19459C1265.13 4.19459 1277.19 7.12629 1285.92 12.9897C1294.65 18.7629 1299.02 27.7835 1299.02 40.0516C1299.02 58.3634 1294.7 72.4356 1286.05 82.268C1280.74 88.3119 1273.81 92.9124 1265.26 96.0696C1256.71 99.2268 1246.05 100.805 1233.26 100.805H1134.16L1152.8 4.19459H1249.74ZM1200.05 38.8338L1194.79 66.1662H1220.3C1226.51 66.1662 1231.33 64.3621 1234.75 60.7539C1236.19 59.2204 1237.31 57.3711 1238.12 55.2062C1238.93 53.0412 1239.34 50.8312 1239.34 48.576C1239.34 45.2384 1238.08 42.8028 1235.56 41.2693C1233.13 39.6456 1229.8 38.8338 1225.57 38.8338H1200.05Z"/>
</mask>
<path d="M109.092 100.805L95.8604 48.3054H94.7803L81.6839 100.805H28.3531L0 4.19459H46.04L58.7314 57.5064H59.8115L72.6379 4.19459H117.868L130.829 57.5064H131.909L144.736 4.19459H190.641L161.478 100.805H109.092Z" fill="white"/>
<path d="M192.914 100.805V4.19459H237.199V100.805H192.914Z" fill="white"/>
<path d="M378.775 37.616H333.275V100.805H288.99V37.616H243.625V4.19459H378.775V37.616Z" fill="white"/>
<path d="M527.457 100.805H476.286L460.625 76.1791H429.436V100.805H385.151V4.19459H483.712C498.564 4.19459 509.14 6.99098 515.441 12.5838C521.831 18.0863 525.027 26.5206 525.027 37.8866C525.027 46.1856 523.226 52.5 519.626 56.8299C516.026 61.1598 510.94 64.1366 504.369 65.7603V67.1134L527.457 100.805ZM466.16 50.6057C472.461 50.6057 475.611 47.9446 475.611 42.6224C475.611 37.3003 472.461 34.6392 466.16 34.6392H429.436V50.6057H466.16Z" fill="white"/>
<path d="M616.305 73.6083V100.805H571.885V73.6083L518.689 4.19459H572.02L594.162 36.9394L616.035 4.19459H669.366L616.305 73.6083Z" fill="white"/>
<path d="M810.466 4.19459V100.805H758.486L714.066 50.4704H712.986V100.805H671.266V4.19459H723.787L767.667 53.8531H768.747V4.19459H810.466Z" fill="white"/>
<path d="M919.521 89.5747H866.596L861.195 100.805H812.995L863.085 4.19459H923.437L973.122 100.805H925.057L919.521 89.5747ZM907.1 64.2719L893.464 36.6688H892.653L879.152 64.2719H907.1Z" fill="white"/>
<path d="M1377.38 71.4433H1435.3V100.805H1305.55V72.5258L1363.47 33.5567H1308.66V4.19459H1435.3V32.4742L1377.38 71.4433Z" fill="white"/>
<path d="M1486.88 40.0516H1560.59V62.2423H1486.88V74.826H1565.45V100.805H1442.59V4.19459H1564.37V28.6856H1486.88V40.0516Z" fill="white"/>
<path d="M1715.3 100.805H1664.12L1648.46 76.1791H1617.27V100.805H1572.99V4.19459H1671.55C1686.4 4.19459 1696.98 6.99098 1703.28 12.5838C1709.67 18.0863 1712.87 26.5206 1712.87 37.8866C1712.87 46.1856 1711.07 52.5 1707.46 56.8299C1703.86 61.1598 1698.78 64.1366 1692.21 65.7603V67.1134L1715.3 100.805ZM1654 50.6057C1660.3 50.6057 1663.45 47.9446 1663.45 42.6224C1663.45 37.3003 1660.3 34.6392 1654 34.6392H1617.27V50.6057H1654Z" fill="white"/>
<path d="M1819.4 89.5747H1766.47L1761.07 100.805H1712.87L1762.96 4.19459H1823.31L1873 100.805H1824.93L1819.4 89.5747ZM1806.98 64.2719L1793.34 36.6688H1792.53L1779.03 64.2719H1806.98Z" fill="white"/>
<path d="M109.092 100.805L95.8604 48.3054H94.7803L81.6839 100.805H28.3531L0 4.19459H46.04L58.7314 57.5064H59.8115L72.6379 4.19459H117.868L130.829 57.5064H131.909L144.736 4.19459H190.641L161.478 100.805H109.092Z" stroke="white" stroke-width="14" mask="url(#path-1-inside-1_13_106)"/>
<path d="M192.914 100.805V4.19459H237.199V100.805H192.914Z" stroke="white" stroke-width="14" mask="url(#path-1-inside-1_13_106)"/>
<path d="M378.775 37.616H333.275V100.805H288.99V37.616H243.625V4.19459H378.775V37.616Z" stroke="white" stroke-width="14" mask="url(#path-1-inside-1_13_106)"/>
<path d="M527.457 100.805H476.286L460.625 76.1791H429.436V100.805H385.151V4.19459H483.712C498.564 4.19459 509.14 6.99098 515.441 12.5838C521.831 18.0863 525.027 26.5206 525.027 37.8866C525.027 46.1856 523.226 52.5 519.626 56.8299C516.026 61.1598 510.94 64.1366 504.369 65.7603V67.1134L527.457 100.805ZM466.16 50.6057C472.461 50.6057 475.611 47.9446 475.611 42.6224C475.611 37.3003 472.461 34.6392 466.16 34.6392H429.436V50.6057H466.16Z" stroke="white" stroke-width="14" mask="url(#path-1-inside-1_13_106)"/>
<path d="M616.305 73.6083V100.805H571.885V73.6083L518.689 4.19459H572.02L594.162 36.9394L616.035 4.19459H669.366L616.305 73.6083Z" stroke="white" stroke-width="14" mask="url(#path-1-inside-1_13_106)"/>
<path d="M810.466 4.19459V100.805H758.486L714.066 50.4704H712.986V100.805H671.266V4.19459H723.787L767.667 53.8531H768.747V4.19459H810.466Z" stroke="white" stroke-width="14" mask="url(#path-1-inside-1_13_106)"/>
<path d="M919.521 89.5747H866.596L861.195 100.805H812.995L863.085 4.19459H923.437L973.122 100.805H925.057L919.521 89.5747ZM907.1 64.2719L893.464 36.6688H892.653L879.152 64.2719H907.1Z" stroke="white" stroke-width="14" mask="url(#path-1-inside-1_13_106)"/>
<path d="M1377.38 71.4433H1435.3V100.805H1305.55V72.5258L1363.47 33.5567H1308.66V4.19459H1435.3V32.4742L1377.38 71.4433Z" stroke="white" stroke-width="14" mask="url(#path-1-inside-1_13_106)"/>
<path d="M1486.88 40.0516H1560.59V62.2423H1486.88V74.826H1565.45V100.805H1442.59V4.19459H1564.37V28.6856H1486.88V40.0516Z" stroke="white" stroke-width="14" mask="url(#path-1-inside-1_13_106)"/>
<path d="M1715.3 100.805H1664.12L1648.46 76.1791H1617.27V100.805H1572.99V4.19459H1671.55C1686.4 4.19459 1696.98 6.99098 1703.28 12.5838C1709.67 18.0863 1712.87 26.5206 1712.87 37.8866C1712.87 46.1856 1711.07 52.5 1707.46 56.8299C1703.86 61.1598 1698.78 64.1366 1692.21 65.7603V67.1134L1715.3 100.805ZM1654 50.6057C1660.3 50.6057 1663.45 47.9446 1663.45 42.6224C1663.45 37.3003 1660.3 34.6392 1654 34.6392H1617.27V50.6057H1654Z" stroke="white" stroke-width="14" mask="url(#path-1-inside-1_13_106)"/>
<path d="M1819.4 89.5747H1766.47L1761.07 100.805H1712.87L1762.96 4.19459H1823.31L1873 100.805H1824.93L1819.4 89.5747ZM1806.98 64.2719L1793.34 36.6688H1792.53L1779.03 64.2719H1806.98Z" stroke="white" stroke-width="14" mask="url(#path-1-inside-1_13_106)"/>
<path d="M1090.89 100.535C1078.92 103.512 1064.03 105 1046.2 105C1019.83 105 1000.48 101.572 988.147 94.7165C975.906 87.7706 969.785 77.0361 969.785 62.5129C969.785 54.0335 971.405 45.8247 974.646 37.8866C977.976 29.9485 982.747 23.3634 988.957 18.1315C996.248 11.9974 1005.92 7.44202 1017.99 4.46521C1030.05 1.4884 1044.99 0 1062.81 0C1089.18 0 1108.49 3.47294 1120.73 10.4188C1132.97 17.2745 1139.09 27.9639 1139.09 42.4871C1139.09 50.8763 1137.47 59.0851 1134.23 67.1134C1130.99 75.0516 1126.27 81.6366 1120.06 86.8686C1112.68 93.0026 1102.95 97.558 1090.89 100.535ZM1074.29 39.2397C1070.69 36.8943 1065.2 35.7217 1057.81 35.7217C1048.09 35.7217 1040.67 38.067 1035.54 42.7577C1033.56 44.5619 1032.03 46.6817 1030.95 49.1173C1029.87 51.4626 1029.33 53.7629 1029.33 56.018C1029.33 60.1675 1031.13 63.415 1034.73 65.7603C1038.33 68.1057 1043.82 69.2784 1051.2 69.2784C1060.92 69.2784 1068.35 66.933 1073.48 62.2423C1075.46 60.4381 1076.99 58.3634 1078.07 56.018C1079.15 53.5825 1079.69 51.2371 1079.69 48.982C1079.69 44.8325 1077.89 41.5851 1074.29 39.2397ZM1249.74 4.19459C1265.13 4.19459 1277.19 7.12629 1285.92 12.9897C1294.65 18.7629 1299.02 27.7835 1299.02 40.0516C1299.02 58.3634 1294.7 72.4356 1286.05 82.268C1280.74 88.3119 1273.81 92.9124 1265.26 96.0696C1256.71 99.2268 1246.05 100.805 1233.26 100.805H1134.16L1152.8 4.19459H1249.74ZM1200.05 38.8338L1194.79 66.1662H1220.3C1226.51 66.1662 1231.33 64.3621 1234.75 60.7539C1236.19 59.2204 1237.31 57.3711 1238.12 55.2062C1238.93 53.0412 1239.34 50.8312 1239.34 48.576C1239.34 45.2384 1238.08 42.8028 1235.56 41.2693C1233.13 39.6456 1229.8 38.8338 1225.57 38.8338H1200.05Z" stroke="white" stroke-width="14" mask="url(#path-1-inside-1_13_106)"/>
</svg>
